REM DIRINDEX 1\4,1\2\5,1\2\6,1\3\7,1\3\8
REM DIRNAME folder01,folder02,folder03,folder04,folder05,folder06,folder07,folder08
TITLE ""
FILE "010_Day05_Check3_Sentences.mp3" MP3
  TRACK 01 AUDIO
    TITLE "0:"
    INDEX 01 00:00:00
  TRACK 02 AUDIO
    TITLE "4:cjc124_0298"
    INDEX 01 00:00:25
  TRACK 03 AUDIO
    TITLE "0:"
    INDEX 01 00:01:54
  TRACK 04 AUDIO
    TITLE "7:cjc124_0299"
    INDEX 01 00:02:30
  TRACK 05 AUDIO
    TITLE "0:"
    INDEX 01 00:04:31
  TRACK 06 AUDIO
    TITLE "8:cjc124_0300"
    INDEX 01 00:04:48
  TRACK 07 AUDIO
    TITLE "0:"
    INDEX 01 00:06:37
  TRACK 08 AUDIO
    TITLE "7:cjc124_0301"
    INDEX 01 00:07:02
  TRACK 09 AUDIO
    TITLE "0:"
    INDEX 01 00:09:24
  TRACK 10 AUDIO
    TITLE "8:cjc124_0302"
    INDEX 01 00:09:42
  TRACK 11 AUDIO
    TITLE "0:"
    INDEX 01 00:12:01
  TRACK 12 AUDIO
    TITLE "7:cjc124_0303"
    INDEX 01 00:12:38
  TRACK 13 AUDIO
    TITLE "0:"
    INDEX 01 00:14:49
  TRACK 14 AUDIO
    TITLE "8:cjc124_0304"
    INDEX 01 00:14:66
  TRACK 15 AUDIO
    TITLE "0:"
    INDEX 01 00:17:57
  TRACK 16 AUDIO
    TITLE "7:cjc124_0305"
    INDEX 01 00:18:17
  TRACK 17 AUDIO
    TITLE "0:"
    INDEX 01 00:21:04
  TRACK 18 AUDIO
    TITLE "8:cjc124_0306"
    INDEX 01 00:21:21
  TRACK 19 AUDIO
    TITLE "0:"
    INDEX 01 00:24:16
  TRACK 20 AUDIO
    TITLE "7:cjc124_0307"
    INDEX 01 00:24:59
  TRACK 21 AUDIO
    TITLE "0:"
    INDEX 01 00:26:50
  TRACK 22 AUDIO
    TITLE "8:cjc124_0308"
    INDEX 01 00:26:67
  TRACK 23 AUDIO
    TITLE "0:"
    INDEX 01 00:29:11
  TRACK 24 AUDIO
    TITLE "7:cjc124_0309"
    INDEX 01 00:29:50
  TRACK 25 AUDIO
    TITLE "0:"
    INDEX 01 00:32:33
  TRACK 26 AUDIO
    TITLE "8:cjc124_0310"
    INDEX 01 00:32:47
  TRACK 27 AUDIO
    TITLE "0:"
    INDEX 01 00:34:65
  TRACK 28 AUDIO
    TITLE "7:cjc124_0311"
    INDEX 01 00:35:27
  TRACK 29 AUDIO
    TITLE "0:"
    INDEX 01 00:38:30
  TRACK 30 AUDIO
    TITLE "8:cjc124_0312"
    INDEX 01 00:38:47
  TRACK 31 AUDIO
    TITLE "0:"
    INDEX 01 00:41:38
  TRACK 32 AUDIO
    TITLE "7:cjc124_0313"
    INDEX 01 00:41:73
  TRACK 33 AUDIO
    TITLE "0:"
    INDEX 01 00:43:58
  TRACK 34 AUDIO
    TITLE "8:cjc124_0314"
    INDEX 01 00:43:72
  TRACK 35 AUDIO
    TITLE "0:"
    INDEX 01 00:45:73
  TRACK 36 AUDIO
    TITLE "7:cjc124_0315"
    INDEX 01 00:46:41
  TRACK 37 AUDIO
    TITLE "0:"
    INDEX 01 00:49:08
  TRACK 38 AUDIO
    TITLE "8:cjc124_0316"
    INDEX 01 00:49:25
  TRACK 39 AUDIO
    TITLE "0:"
    INDEX 01 00:51:46
  TRACK 40 AUDIO
    TITLE "7:cjc124_0317"
    INDEX 01 00:52:12
  TRACK 41 AUDIO
    TITLE "0:"
    INDEX 01 00:54:66
  TRACK 42 AUDIO
    TITLE "8:cjc124_0318"
    INDEX 01 00:55:06
  TRACK 43 AUDIO
    TITLE "0:"
    INDEX 01 00:58:22
  TRACK 44 AUDIO
    TITLE "7:cjc124_0319"
    INDEX 01 00:58:60
  TRACK 45 AUDIO
    TITLE "0:"
    INDEX 01 01:01:07
  TRACK 46 AUDIO
    TITLE "8:cjc124_0320"
    INDEX 01 01:01:23
  TRACK 47 AUDIO
    TITLE "0:"
    INDEX 01 01:04:09
  TRACK 48 AUDIO
    TITLE "7:cjc124_0321"
    INDEX 01 01:04:47
  TRACK 49 AUDIO
    TITLE "0:"
    INDEX 01 01:07:17
  TRACK 50 AUDIO
    TITLE "8:cjc124_0322"
    INDEX 01 01:07:33
  TRACK 51 AUDIO
    TITLE "0:"
    INDEX 01 01:09:69
  TRACK 52 AUDIO
    TITLE "7:cjc124_0323"
    INDEX 01 01:10:31
  TRACK 53 AUDIO
    TITLE "0:"
    INDEX 01 01:12:17
  TRACK 54 AUDIO
    TITLE "8:cjc124_0324"
    INDEX 01 01:12:36
  TRACK 55 AUDIO
    TITLE "0:"
    INDEX 01 01:14:37
  TRACK 56 AUDIO
    TITLE "7:cjc124_0325"
    INDEX 01 01:14:74
  TRACK 57 AUDIO
    TITLE "0:"
    INDEX 01 01:16:65
  TRACK 58 AUDIO
    TITLE "8:cjc124_0326"
    INDEX 01 01:17:16
  TRACK 59 AUDIO
    TITLE "0:"
    INDEX 01 01:19:56
  TRACK 60 AUDIO
    TITLE "7:cjc124_0327"
    INDEX 01 01:20:16
  TRACK 61 AUDIO
    TITLE "0:"
    INDEX 01 01:22:54
  TRACK 62 AUDIO
    TITLE "8:cjc124_0328"
    INDEX 01 01:22:68
  TRACK 63 AUDIO
    TITLE "0:"
    INDEX 01 01:25:41
  TRACK 64 AUDIO
    TITLE "7:cjc124_0329"
    INDEX 01 01:26:05
  TRACK 65 AUDIO
    TITLE "0:"
    INDEX 01 01:29:27
  TRACK 66 AUDIO
    TITLE "8:cjc124_0330"
    INDEX 01 01:29:45
  TRACK 67 AUDIO
    TITLE "0:"
    INDEX 01 01:33:19
